<svg width="9" height="8" viewBox="0 0 9 8" fill="none" xmlns="http://www.w3.org/2000/svg">
<path d="M0.71875 3.55713L1.23535 1.9624C2.42578 2.38167 3.29053 2.74479 3.82959 3.05176C3.68734 1.69661 3.61247 0.764486 3.60498 0.255371H5.2334C5.21094 0.996582 5.12484 1.92497 4.9751 3.04053C5.74626 2.6512 6.62972 2.29183 7.62549 1.9624L8.14209 3.55713C7.19124 3.87158 6.25911 4.08122 5.3457 4.18604C5.80241 4.58285 6.44629 5.29036 7.27734 6.30859L5.92969 7.26318C5.49544 6.67171 4.98258 5.86686 4.39111 4.84863C3.83708 5.9043 3.35042 6.70915 2.93115 7.26318L1.60596 6.30859C2.47445 5.23796 3.09587 4.53044 3.47021 4.18604C2.50439 3.99886 1.58724 3.78923 0.71875 3.55713Z" fill="#08AA2B"/>
</svg>
