<svg width="24" height="24" viewBox="0 0 24 24" fill="none" xmlns="http://www.w3.org/2000/svg">
<g clip-path="url(#clip0)">
<path d="M23.9683 16.2372H0V20.7129H23.9683V16.2372Z" fill="#E4E9ED"/>
<path d="M21.5823 3.28701C21.5823 3.28701 19.5562 4.16938 19.5562 7.37205C19.5562 10.0845 22.3993 10.3459 22.3993 12.5028C22.3993 14.1042 21.9419 14.5944 21.9419 14.5944C21.9419 14.5944 24.0007 12.9604 24.0007 10.6401C24.0006 7.24132 20.8307 9.00601 21.5823 3.28701Z" fill="#C7D9E5"/>
<path d="M8.00101 16.2372H0V20.7129H8.00101V16.2372Z" fill="#F49F00"/>
<path d="M8.80842 16.2372H7.19434V20.7129H8.80842V16.2372Z" fill="#BABECB"/>
<path d="M23.9683 19.0987H0V20.7127H23.9683V19.0987Z" fill="#D7D9DB"/>
<path d="M23.9687 16.2372H21.7949V20.7129H23.9687V16.2372Z" fill="#A5A7B7"/>
<path d="M23.9687 19.0987H21.7949V20.7127H23.9687V19.0987Z" fill="#9396A3"/>
<path d="M8.00101 19.0987H0V20.7127H8.00101V19.0987Z" fill="#DD8903"/>
<path d="M8.80842 19.0987H7.19434V20.7127H8.80842V19.0987Z" fill="#9EA3B2"/>
</g>
<defs>
<clipPath id="clip0">
<rect width="24" height="24" fill="white"/>
</clipPath>
</defs>
</svg>
