<svg width="16" height="16" viewBox="0 0 16 16" fill="none" xmlns="http://www.w3.org/2000/svg">
<path fill-rule="evenodd" clip-rule="evenodd" d="M8.59224 10.5476V7.47202C8.59224 7.15746 8.33725 6.90247 8.02268 6.90247C7.70812 6.90247 7.45312 7.15746 7.45312 7.47202V10.5476C7.45312 10.8622 7.70812 11.1172 8.02268 11.1172C8.33725 11.1172 8.59224 10.8622 8.59224 10.5476ZM8.02268 4.9375C7.70812 4.9375 7.45312 5.19249 7.45312 5.50706C7.45312 5.82162 7.70812 6.07661 8.02268 6.07661C8.33725 6.07661 8.59224 5.82162 8.59224 5.50706C8.59224 5.19249 8.33725 4.9375 8.02268 4.9375Z" fill="#0072BC"/>
<path fill-rule="evenodd" clip-rule="evenodd" d="M8 15C4.14005 15 1 11.86 1 8C1 4.14005 4.14005 1 8 1C11.86 1 15 4.14005 15 8C15 11.86 11.86 15 8 15ZM8 1.875C4.62251 1.875 1.875 4.62251 1.875 8C1.875 11.3775 4.62251 14.125 8 14.125C11.3775 14.125 14.125 11.3775 14.125 8C14.125 4.62251 11.3775 1.875 8 1.875Z" fill="#0072BC"/>
</svg>
