<svg width="24" height="24" viewBox="0 0 24 24" fill="none" xmlns="http://www.w3.org/2000/svg">
<path d="M18.4465 11.2036C18.9571 9.99088 18.3507 7.85257 17.0422 7.31003C17.0422 7.31003 16.5954 4.34207 14.0743 4.34207C11.5529 4.34207 11.3616 7.31003 12.9573 8.07596C12.9573 8.07596 13.5317 9.73544 15.5104 9.73544C17.4892 9.73544 17.489 11.2036 17.489 11.2036L17.9092 11.6238L18.4465 11.2036Z" fill="#65687F"/>
<path d="M4.91504 11.2037H18.4467V14.4589H4.91504V11.2037Z" fill="#D8EDF7"/>
<path d="M4.91504 13.1182H18.4467V14.4586H4.91504V13.1182Z" fill="#A8C3CF"/>
<path d="M16.9785 11.2037H18.4465V14.4589H16.9785V11.2037Z" fill="#FF5A73"/>
<path d="M16.9785 13.1182H18.4465V14.4586H16.9785V13.1182Z" fill="#D4243E"/>
<path d="M4.91504 11.2037H8.61725V14.4589H4.91504V11.2037Z" fill="#F2B375"/>
<path d="M4.91504 13.1182H8.61725V14.4586H4.91504V13.1182Z" fill="#E09544"/>
<path d="M12 0C5.3725 0 0 5.3725 0 12C0 18.6275 5.3725 24 12 24C18.6275 24 24 18.6275 24 12C24 5.3725 18.6275 0 12 0ZM2.15845 12C2.15845 8.66455 3.81812 5.71729 6.35614 3.93732L15.7507 21.1007C14.5946 21.5777 13.3282 21.8414 12 21.8414C6.5647 21.8416 2.15845 17.4353 2.15845 12ZM17.6435 20.0629L8.24908 2.89929C9.40503 2.4223 10.6718 2.15845 12 2.15845C17.4353 2.15845 21.841 6.5647 21.841 12C21.841 15.3354 20.1815 18.2829 17.6435 20.0629Z" fill="#FF5A73"/>
</svg>
