<svg width="12" height="22" viewBox="0 0 12 22" fill="none" xmlns="http://www.w3.org/2000/svg">
<path d="M10.0003 21.5009C10.3508 21.5016 10.6904 21.3795 10.9603 21.1559C11.1122 21.03 11.2377 20.8753 11.3298 20.7008C11.4218 20.5263 11.4785 20.3353 11.4966 20.1388C11.5147 19.9424 11.4939 19.7443 11.4353 19.5559C11.3768 19.3675 11.2816 19.1925 11.1553 19.0409L4.43529 11.0009L10.9153 2.94589C11.0399 2.79246 11.1329 2.61591 11.1891 2.4264C11.2452 2.23689 11.2634 2.03816 11.2425 1.84161C11.2216 1.64507 11.162 1.4546 11.0672 1.28114C10.9725 1.10769 10.8444 0.954671 10.6903 0.830887C10.5351 0.694333 10.3533 0.591331 10.1564 0.528348C9.95955 0.465364 9.75177 0.443759 9.54613 0.464886C9.34049 0.486013 9.14144 0.549418 8.96146 0.651121C8.78149 0.752823 8.62448 0.890628 8.50029 1.05589L1.25529 10.0559C1.03467 10.3243 0.914057 10.6609 0.914057 11.0084C0.914057 11.3558 1.03467 11.6925 1.25529 11.9609L8.75529 20.9609C8.90577 21.1424 9.09692 21.2859 9.31323 21.3797C9.52954 21.4736 9.76493 21.5151 10.0003 21.5009Z" fill="#DEDEDE"/>
</svg>
