<svg width="12" height="22" viewBox="0 0 12 22" fill="none" xmlns="http://www.w3.org/2000/svg">
<path d="M1.99873 21.5009C1.64826 21.5016 1.3086 21.3795 1.03873 21.1559C0.886846 21.03 0.761293 20.8753 0.669265 20.7008C0.577237 20.5263 0.520543 20.3353 0.502429 20.1388C0.484315 19.9424 0.505138 19.7443 0.563705 19.5559C0.622272 19.3675 0.71743 19.1925 0.843733 19.0409L7.56374 11.0009L1.08373 2.94589C0.959136 2.79246 0.866088 2.61591 0.80994 2.4264C0.753793 2.23689 0.735652 2.03816 0.756561 1.84161C0.77747 1.64507 0.837015 1.4546 0.931776 1.28114C1.02654 1.10769 1.15464 0.954671 1.30873 0.830887C1.46393 0.694333 1.64568 0.591331 1.84258 0.528348C2.03947 0.465364 2.24726 0.443759 2.4529 0.464886C2.65854 0.486013 2.85759 0.549418 3.03756 0.651121C3.21754 0.752823 3.37454 0.890628 3.49873 1.05589L10.7437 10.0559C10.9644 10.3243 11.085 10.661 11.085 11.0084C11.085 11.3558 10.9644 11.6925 10.7437 11.9609L3.24373 20.9609C3.09326 21.1424 2.90211 21.2859 2.68579 21.3797C2.46948 21.4736 2.23409 21.5151 1.99873 21.5009Z" fill="#0072BC"/>
</svg>
