<svg width="288" height="101" viewBox="0 0 288 101" fill="none" xmlns="http://www.w3.org/2000/svg">
<g filter="url(#filter0_d)">
<mask id="path-1-inside-1" fill="white">
<path fill-rule="evenodd" clip-rule="evenodd" d="M278 10H10V85H148.036L151.5 91L154.964 85H278V10Z"/>
</mask>
<path fill-rule="evenodd" clip-rule="evenodd" d="M278 10H10V85H148.036L151.5 91L154.964 85H278V10Z" fill="#FAFEFF"/>
<path d="M10 10V9.5H9.5V10H10ZM278 10H278.5V9.5H278V10ZM10 85H9.5V85.5H10V85ZM148.036 85L148.469 84.75L148.325 84.5H148.036V85ZM151.5 91L151.067 91.25L151.5 92L151.933 91.25L151.5 91ZM154.964 85V84.5H154.675L154.531 84.75L154.964 85ZM278 85V85.5H278.5V85H278ZM10 10.5H278V9.5H10V10.5ZM10.5 85V10H9.5V85H10.5ZM148.036 84.5H10V85.5H148.036V84.5ZM151.933 90.75L148.469 84.75L147.603 85.25L151.067 91.25L151.933 90.75ZM154.531 84.75L151.067 90.75L151.933 91.25L155.397 85.25L154.531 84.75ZM278 84.5H154.964V85.5H278V84.5ZM277.5 10V85H278.5V10H277.5Z" fill="#2BC9FF" mask="url(#path-1-inside-1)"/>
</g>
<defs>
<filter id="filter0_d" x="0" y="0" width="288" height="101" filterUnits="userSpaceOnUse" color-interpolation-filters="sRGB">
<feFlood flood-opacity="0" result="BackgroundImageFix"/>
<feColorMatrix in="SourceAlpha" type="matrix" values="0 0 0 0 0 0 0 0 0 0 0 0 0 0 0 0 0 0 127 0" result="hardAlpha"/>
<feOffset/>
<feGaussianBlur stdDeviation="5"/>
<feColorMatrix type="matrix" values="0 0 0 0 0 0 0 0 0 0 0 0 0 0 0 0 0 0 0.06 0"/>
<feBlend mode="normal" in2="BackgroundImageFix" result="effect1_dropShadow"/>
<feBlend mode="normal" in="SourceGraphic" in2="effect1_dropShadow" result="shape"/>
</filter>
</defs>
</svg>
