<svg width="27" height="26" viewBox="0 0 27 26" fill="none" xmlns="http://www.w3.org/2000/svg">
<path d="M22.6302 4.72896L20.8352 3.50996C20.5968 3.34956 20.3048 3.28972 20.0226 3.34347C19.7404 3.39721 19.4908 3.56019 19.3282 3.79696L10.5412 16.756L6.50216 12.717C6.2981 12.5151 6.02267 12.4019 5.73566 12.4019C5.44865 12.4019 5.17322 12.5151 4.96916 12.717L3.43616 14.253C3.33535 14.3536 3.25538 14.4732 3.20081 14.6048C3.14625 14.7364 3.11816 14.8775 3.11816 15.02C3.11816 15.1624 3.14625 15.3035 3.20081 15.4351C3.25538 15.5667 3.33535 15.6863 3.43616 15.787L9.64516 21.999C9.99416 22.346 10.5402 22.614 11.0322 22.614C11.5242 22.614 12.0202 22.304 12.3392 21.84L22.9192 6.23396C23.08 5.99595 23.14 5.70385 23.0858 5.42172C23.0316 5.13958 22.8678 4.89045 22.6302 4.72896Z" fill="#08AA2B"/>
</svg>
